<svg xmlns="http://www.w3.org/2000/svg" role="img" viewBox="0 0 190 190">
    <path fill="#cbf4f7" d="M159.5 64.15v-35.2H85.9l-23.1.2-.2-.2H27.7v34.9l.2.3-.2 23.1v36.1c13.6-11 27.1-21.9 40.6-33 2.7-2.2 4.5-2.2 7 .4 9.9 10.2 28.34 28.24 38.34 38.34 2.1 2.2 37.86 39.21 45.66 44.81l.2-71.35v-38.4z"/>
    <path fill="#ccc" d="M174.15 187.15l-3.24-50.24-29.12-29.12-44.35 44.36v35h76.71z"/>
    <path fill="#00d600" d="M159.5 161.43L91.28 93.21c-14.34-14.34-37.59-14.34-51.93 0l-26.68 26.68v41.54H159.5z"/>
    <path fill="#0086ff" d="M62.8 171.55v-10.7H27.7v-35.2H1.3v61.5h61.5V171.55zm123.1-45.9h-26.6l.2.2v35h-34.9l-.2-.2v26.5h61.5v-61.5zM12.1 64.15h15.8l-.2-.3v-34.9h34.9l.2.2V2.55H1.3v61.6h10.8zm112.3-53.2v18h35.1v35.2h26.4V2.55h-61.5v8.4z"/>
    <path fill="#93eaff" d="M62.8 10.95v18.2l23.1-.2h38.5V2.55H62.8v8.4zm61.6 149.7l-23.2.2H62.8v26.3h61.6v-26.5zm48.3-96.5h-13.2v38.4l-.2 22.6v.5H185.9v-61.5h-13.2zm-160.6 61.5h15.6v-38.4l.2-23.1H1.3v61.5h10.8z"/>
    <path fill="#ffce00" d="M117.84 43.84c-10.33 0-18.58 8.25-18.4 18.31.18 10.24 8.34 18.31 18.49 18.31s18.22-8.34 18.22-18.22c0-10.33-8.07-18.49-18.31-18.4z"/>
</svg>